<?xml version="1.0" encoding="UTF-8" standalone="no"?>
<!-- Created with Inkscape (http://www.inkscape.org/) -->

<svg
   width="210mm"
   height="297mm"
   viewBox="0 0 210 297"
   version="1.1"
   id="svg5"
   inkscape:version="1.1.1 (3bf5ae0d25, 2021-09-20)"
   sodipodi:docname="icons.svg"
   xmlns:inkscape="http://www.inkscape.org/namespaces/inkscape"
   xmlns:sodipodi="http://sodipodi.sourceforge.net/DTD/sodipodi-0.dtd"
   xmlns="http://www.w3.org/2000/svg"
   xmlns:svg="http://www.w3.org/2000/svg">
  <sodipodi:namedview
     id="namedview7"
     pagecolor="#505050"
     bordercolor="#eeeeee"
     borderopacity="1"
     inkscape:pageshadow="0"
     inkscape:pageopacity="0"
     inkscape:pagecheckerboard="0"
     inkscape:document-units="mm"
     showgrid="false"
     inkscape:zoom="1.8886083"
     inkscape:cx="566.81949"
     inkscape:cy="738.37439"
     inkscape:window-width="1366"
     inkscape:window-height="705"
     inkscape:window-x="-8"
     inkscape:window-y="-8"
     inkscape:window-maximized="1"
     inkscape:current-layer="layer1" />
  <defs
     id="defs2" />
  <g
     inkscape:label="Layer 1"
     inkscape:groupmode="layer"
     id="layer1">
    <g
       style="clip-rule:evenodd;fill:#2fa4ff;fill-opacity:1;fill-rule:evenodd"
       id="g833"
       transform="matrix(0.396875,0,0,0.396875,111.49223,170.61204)"
       inkscape:export-filename="C:\Users\Admin\Desktop\Dezynation\travel\img\bus.png"
       inkscape:export-xdpi="341.33392"
       inkscape:export-ydpi="341.33392">
      <path
         d="M 6,24 H 4 C 3.448,24 3,23.552 3,23 V 22 C 2.47,22 1.961,21.789 1.586,21.414 1.211,21.039 1,20.53 1,20 V 12 C 0.448,12 0,11.552 0,11 V 8 C 0,7.448 0.448,7 1,7 V 3 C 1,1.343 2.343,0 4,0 h 16 c 1.657,0 3,1.343 3,3 v 4 c 0.552,0 1,0.448 1,1 v 3 c 0,0.552 -0.448,1 -1,1 v 8 c 0,0.53 -0.211,1.039 -0.586,1.414 C 22.039,21.789 21.53,22 21,22 v 1 c 0,0.552 -0.448,1 -1,1 h -2 c -0.552,0 -1,-0.448 -1,-1 V 22 H 7 v 1 c 0,0.552 -0.448,1 -1,1 z M 4.5,17 C 5.328,17 6,17.672 6,18.5 6,19.328 5.328,20 4.5,20 3.672,20 3,19.328 3,18.5 3,17.672 3.672,17 4.5,17 Z m 15,0 C 20.328,17 21,17.672 21,18.5 21,19.328 20.328,20 19.5,20 18.672,20 18,19.328 18,18.5 18,17.672 18.672,17 19.5,17 Z m -5,1 h -5 C 9.224,18 9,18.224 9,18.5 9,18.776 9.224,19 9.5,19 h 5 C 14.776,19 15,18.776 15,18.5 15,18.224 14.776,18 14.5,18 Z M 21,5.5 C 21,5.224 20.776,5 20.5,5 H 3.5 C 3.224,5 3,5.224 3,5.5 V 14 c 0,0 3.098,1 9,1 5.902,0 9,-1 9,-1 z M 16,2 H 8 v 1 h 8 z"
         id="path824"
         style="fill:#2fa4ff;fill-opacity:1" />
    </g>
    <g
       style="clip-rule:evenodd;fill:#2fa4ff;fill-opacity:1;fill-rule:evenodd"
       id="g844"
       transform="matrix(0.396875,0,0,0.396875,123.83613,170.46566)"
       inkscape:export-filename="C:\Users\Admin\Desktop\Dezynation\travel\img\discount.png"
       inkscape:export-xdpi="341.33334"
       inkscape:export-ydpi="341.33334">
      <path
         id="path835"
         style="fill:#2fa4ff;fill-opacity:1;stroke-width:1.5"
         d="M 471.04297 644.2793 L 471.04297 658.45898 L 486.98047 674.2793 L 501.04297 660.2168 L 485.07031 644.2793 L 471.04297 644.2793 z M 476.58984 647.2793 C 477.99684 647.2793 479.13867 648.42113 479.13867 649.82812 C 479.13867 651.23513 477.99684 652.37695 476.58984 652.37695 C 475.18284 652.37695 474.04297 651.23512 474.04297 649.82812 C 474.04297 648.42112 475.18284 647.2793 476.58984 647.2793 z M 486.06641 654.12305 L 486.39844 655.33789 L 484.97266 656.76367 C 485.1347 656.74894 485.30804 656.75569 485.49219 656.78516 C 485.67633 656.81462 485.86296 656.86122 486.05078 656.92383 C 486.23861 656.97907 486.41653 657.05028 486.58594 657.13867 C 486.75535 657.21969 486.9043 657.30877 487.0332 657.4082 L 488.19336 656.24805 L 488.52539 657.46484 L 487.80078 658.1875 C 488.0328 658.50791 488.20157 658.86788 488.30469 659.26562 C 488.40781 659.65601 488.43002 660.06738 488.37109 660.50195 C 488.31585 660.93285 488.17147 661.37513 487.93945 661.82812 C 487.71112 662.27743 487.37771 662.7219 486.93945 663.16016 L 493.16602 663.47461 L 491.86719 664.77344 L 485.70312 664.39648 L 484.95703 663.65234 L 486.0957 662.51367 C 486.35719 662.25219 486.573 661.98325 486.74609 661.70703 C 486.91919 661.43082 487.03918 661.15294 487.10547 660.87305 C 487.17544 660.58947 487.18873 660.30724 487.14453 660.02734 C 487.10034 659.74008 486.98928 659.45763 486.8125 659.17773 L 483.42578 662.5625 L 483.0957 661.34766 L 486.0332 658.4082 C 485.79382 658.26457 485.54033 658.16222 485.27148 658.09961 C 485.00264 658.037 484.72934 658.02154 484.45312 658.05469 C 484.18059 658.08415 483.91383 658.16407 483.65234 658.29297 C 483.39086 658.4145 483.14631 658.59002 482.91797 658.81836 L 481.29883 660.43555 L 480.96875 659.2207 L 486.06641 654.12305 z M 472.40234 661.92188 L 479.61523 680.2793 L 498.125 673.00781 L 495.9375 667.44336 L 486.98438 676.39844 L 472.40234 661.92188 z "
         transform="matrix(0.66666667,0,0,0.66666667,-312.02804,-429.51977)"
         inkscape:export-filename="C:\Users\Admin\Desktop\Dezynation\travel\discount.png"
         inkscape:export-xdpi="196.76801"
         inkscape:export-ydpi="196.76801" />
    </g>
    <path
       d="m 139.30023,170.9543 c 2.18837,0 3.96874,1.78037 3.96874,3.96874 0,2.18836 -1.78037,3.96874 -3.96874,3.96874 -2.18836,0 -3.96874,-1.78038 -3.96874,-3.96874 0,-2.18837 1.78038,-3.96874 3.96874,-3.96874 z m 0,-0.79376 c -2.63008,0 -4.7625,2.13242 -4.7625,4.7625 0,2.63008 2.13241,4.7625 4.7625,4.7625 2.63008,0 4.7625,-2.13241 4.7625,-4.7625 0,-2.63008 -2.13241,-4.7625 -4.7625,-4.7625 z m 2.38125,5.55625 h -4.7625 c 0.1314,0.58142 1.12197,1.5875 2.38166,1.5875 1.24379,0 2.24868,-1.00051 2.38084,-1.5875 z m 0,-1.58671 -0.29964,0.20082 c 0,0 -0.19964,-0.37623 -0.69294,-0.37623 -0.47902,0 -0.69255,0.37623 -0.69255,0.37623 l -0.29925,-0.20082 c 0.11145,-0.29687 0.47824,-0.79453 0.9918,-0.79453 0.51395,0 0.88026,0.49767 0.99258,0.79453 z m -2.77812,0 -0.29964,0.20082 c 0,0 -0.19963,-0.37623 -0.69295,-0.37623 -0.47903,0 -0.69254,0.37623 -0.69254,0.37623 l -0.29925,-0.20082 c 0.11145,-0.29687 0.47823,-0.79453 0.99179,-0.79453 0.51396,0 0.88027,0.49767 0.99259,0.79453 z"
       id="path825"
       style="fill:#2fa4ff;fill-opacity:1;stroke-width:0.396874"
       inkscape:export-filename="C:\Users\Admin\Desktop\Dezynation\travel\img\smile.png"
       inkscape:export-xdpi="341.33334"
       inkscape:export-ydpi="341.33334" />
    <path
       style="stroke-width:0.396874;fill:#2fa4ff;fill-opacity:1"
       d="m 149.32887,173.62353 c -0.32862,0 -0.59532,-0.26631 -0.59532,-0.59532 0,-0.32901 0.2667,-0.59531 0.59532,-0.59531 0.32861,0 0.59531,0.26629 0.59531,0.59531 0,0.32901 -0.2667,0.59532 -0.59531,0.59532 z"
       id="path3189"
       inkscape:export-filename="C:\Users\Admin\Desktop\Dezynation\travel\img\customize.png"
       inkscape:export-xdpi="341.33334"
       inkscape:export-ydpi="341.33334" />
    <path
       style="stroke-width:0.396874;fill:none;fill-opacity:1;stroke:#2fa4ff;stroke-opacity:1"
       d="m 152.50386,171.63915 h -3.57187 c -0.76716,0 -1.38906,0.6219 -1.38906,1.38906 0,0.76716 0.6219,1.38906 1.38906,1.38906 h 3.57187 c 0.76716,0 1.38908,-0.6219 1.38908,-1.38906 0,-0.76716 -0.62192,-1.38906 -1.38908,-1.38906 z"
       id="path3187"
       inkscape:export-filename="C:\Users\Admin\Desktop\Dezynation\travel\img\customize.png"
       inkscape:export-xdpi="341.33334"
       inkscape:export-ydpi="341.33334" />
    <path
       id="path3183"
       style="fill:#00a700;fill-opacity:1;stroke-width:1.5"
       d="M 562.89258 662.21484 C 559.99308 662.21484 557.64258 664.56534 557.64258 667.46484 C 557.64258 670.36435 559.99308 672.71484 562.89258 672.71484 L 576.39258 672.71484 C 579.29208 672.71484 581.64258 670.36435 581.64258 667.46484 C 581.64258 664.56534 579.29208 662.21484 576.39258 662.21484 L 562.89258 662.21484 z M 574.83398 665.21484 C 574.85327 665.21436 574.87317 665.21484 574.89258 665.21484 C 576.13461 665.21484 577.14258 666.22134 577.14258 667.46484 C 577.14258 668.70835 576.13461 669.71484 574.89258 669.71484 C 573.65063 669.71484 572.64258 668.70835 572.64258 667.46484 C 572.64258 666.24077 573.61882 665.24562 574.83398 665.21484 z "
       transform="scale(0.26458333)"
       inkscape:export-filename="C:\Users\Admin\Desktop\Dezynation\travel\img\customize.png"
       inkscape:export-xdpi="341.33334"
       inkscape:export-ydpi="341.33334" />
    <path
       id="path3179"
       style="fill:#2fa4ff;fill-opacity:1;stroke-width:1.5"
       d="M 559.14258 642.71484 C 554.99957 642.71484 551.64258 646.07335 551.64258 650.21484 L 551.64258 671.21484 C 551.64258 675.35637 554.99957 678.71484 559.14258 678.71484 L 580.14258 678.71484 C 584.28558 678.71484 587.64258 675.35637 587.64258 671.21484 L 587.64258 650.21484 C 587.64258 646.07335 584.28558 642.71484 580.14258 642.71484 L 559.14258 642.71484 z M 559.14258 645.71484 L 580.14258 645.71484 C 582.62357 645.71484 584.64258 647.73385 584.64258 650.21484 L 584.64258 671.21484 C 584.64258 673.69584 582.62357 675.71484 580.14258 675.71484 L 559.14258 675.71484 C 556.66155 675.71484 554.64258 673.69584 554.64258 671.21484 L 554.64258 650.21484 C 554.64258 647.73385 556.66155 645.71484 559.14258 645.71484 z "
       transform="scale(0.26458333)"
       inkscape:export-filename="C:\Users\Admin\Desktop\Dezynation\travel\img\customize.png"
       inkscape:export-xdpi="341.33334"
       inkscape:export-ydpi="341.33334" />
  </g>
</svg>
